<svg width="48.00000000000001" height="48.00000000000001" xmlns="http://www.w3.org/2000/svg">
 <defs>
  <linearGradient y2="1" x2="0" y1="0" x1="1" id="svg_3">
   <stop offset="0" stop-color="#327dff"/>
   <stop offset="0.38672" stop-color="#000000"/>
   <stop offset="0.62109" stop-color="#000000"/>
   <stop offset="1" stop-color="#00ce63"/>
  </linearGradient>
 </defs>
 <g>
  <title>Layer 1</title>
  <path stroke="#000000" fill="url(#svg_3)" d="m10.72624,0.70017c-2.59445,0 -4.67236,2.08736 -4.67236,4.66448l-0.02349,37.31595c0,2.57713 2.07791,4.66449 4.67238,4.66449l28.19855,0c2.59445,0 4.69583,-2.08737 4.69583,-4.66449l-0.1368,-32.62766l-9.11207,-9.27853l-23.62204,-0.07425l0,0.00001z" id="svg_1"/>
  <path transform="rotate(-74.44412994384766 25.53650665283203,23.208723068237305) " id="svg_2" d="m40.67338,21.51679c2.72665,-3.1177 3.27471,-7.3723 1.79143,-10.95039l-5.47397,6.34836l-5.39598,-1.04335l-1.78795,-5.16935l5.46012,-6.33361c-3.7558,-0.93972 -7.89353,0.19478 -10.60817,3.30014c-2.86292,3.27382 -3.33144,7.80741 -1.55944,11.48567l-14.26839,16.31797c-1.51823,1.73489 -1.33327,4.36618 0.4112,5.87549c1.74447,1.50824 4.38976,1.32595 5.90747,-0.40896l14.25167,-16.30187c3.92306,1.25753 8.39585,0.16861 11.27201,-3.1201l0,0z" stroke-width="null" fill="none" stroke="#00ffb2"/>
 </g>
</svg>